<svg width="162" height="88" viewBox="0 0 162 88" fill="none" xmlns="http://www.w3.org/2000/svg">
<rect width="162" height="88" rx="16" fill="white"/>
<path d="M71.1369 81C59.9747 80.9357 50.7415 58.1498 50.7415 46.5455C50.7415 27.5898 64.9614 23.4399 70.4417 23.4399C72.9114 23.4399 75.5486 24.4098 77.8746 25.268C79.5012 25.8667 81.1834 26.4847 82.119 26.4847C82.679 26.4847 83.9987 25.959 85.1638 25.4977C87.6486 24.5085 90.7406 23.2791 94.3412 23.2791C94.3477 23.2791 94.3563 23.2791 94.3626 23.2791C97.0512 23.2791 105.203 23.8691 110.104 31.2291L111.252 32.9542L109.6 34.2009C107.239 35.9819 102.933 39.2306 102.933 45.6658C102.933 53.2875 107.81 56.2187 110.153 57.6285C111.188 58.2507 112.258 58.8923 112.258 60.2956C112.258 61.2119 104.946 80.8864 94.3261 80.8864C91.7276 80.8864 89.8909 80.1053 88.2707 79.4165C86.6314 78.7191 85.2173 78.1184 82.8806 78.1184C81.6961 78.1184 80.1983 78.6784 78.6126 79.2728C76.4457 80.0816 73.9929 81 71.2099 81H71.1369Z" fill="black"/>
<path d="M95.4661 6C95.7427 15.9721 88.6111 22.8902 81.4878 22.4563C80.3141 14.4983 88.6102 6 95.4661 6Z" fill="black"/>
</svg>
