<svg width="684" height="507" viewBox="0 0 684 507" fill="none" xmlns="http://www.w3.org/2000/svg">
<g clip-path="url(#clip0_11_123)">
<path d="M243.309 505.309H229.381C227.611 505.307 225.913 504.603 224.661 503.351C223.41 502.099 222.705 500.402 222.703 498.631V382.546C222.705 380.776 223.41 379.078 224.661 377.826C225.913 376.575 227.611 375.87 229.381 375.868H243.309C245.08 375.87 246.777 376.575 248.029 377.826C249.281 379.078 249.985 380.776 249.987 382.546V498.631C249.985 500.402 249.281 502.099 248.029 503.351C246.777 504.603 245.08 505.307 243.309 505.309Z" fill="#EA7052"/>
<path d="M209.156 505.309H195.227C193.457 505.307 191.759 504.603 190.508 503.351C189.256 502.099 188.552 500.402 188.55 498.631V382.546C188.552 380.776 189.256 379.078 190.508 377.826C191.759 376.575 193.457 375.87 195.227 375.868H209.156C210.926 375.87 212.623 376.575 213.875 377.826C215.127 379.078 215.831 380.776 215.833 382.546V498.631C215.831 500.402 215.127 502.099 213.875 503.351C212.623 504.603 210.926 505.307 209.156 505.309Z" fill="#EA7052"/>
<path d="M223.256 229.826C253.883 229.826 278.711 204.998 278.711 174.372C278.711 143.745 253.883 118.917 223.256 118.917C192.629 118.917 167.802 143.745 167.802 174.372C167.802 204.998 192.629 229.826 223.256 229.826Z" fill="#EA7052"/>
<path d="M254.594 192.777C258.101 191.983 262.466 190.993 265.359 187.855C266.215 186.891 266.849 185.751 267.218 184.515C267.586 183.28 267.68 181.979 267.493 180.703C267.377 179.793 267.052 178.922 266.543 178.159C266.035 177.396 265.357 176.76 264.562 176.302C262.501 175.159 259.853 175.318 257.235 176.684L255.958 155.073L253.788 155.201L255.289 180.607L256.894 179.448C258.755 178.106 261.47 177.073 263.506 178.203C264.011 178.504 264.44 178.918 264.759 179.411C265.078 179.905 265.279 180.465 265.346 181.049C265.48 182 265.408 182.968 265.134 183.888C264.86 184.808 264.392 185.658 263.76 186.381C261.508 188.823 258.059 189.762 254.113 190.656L254.594 192.777Z" fill="#301446"/>
<path d="M278.26 152.553L266.77 154.823L267.191 156.956L278.682 154.687L278.26 152.553Z" fill="#301446"/>
<path d="M241.994 159.719L230.504 161.989L230.925 164.122L242.416 161.853L241.994 159.719Z" fill="#301446"/>
<path d="M236.895 403.871H172.241C170.235 403.869 168.312 403.071 166.893 401.652C165.474 400.233 164.676 398.31 164.674 396.303V299.281C164.691 284.368 170.623 270.07 181.168 259.525C191.713 248.98 206.01 243.048 220.924 243.031C236.257 243.049 250.957 249.148 261.799 259.99C272.641 270.832 278.74 285.533 278.758 300.866V362.009C278.745 373.108 274.33 383.748 266.482 391.596C258.634 399.444 247.994 403.858 236.895 403.871Z" fill="#301446"/>
<path d="M212.86 149.958C214.65 144.591 220.868 142.521 226.041 142.36C233.312 142.134 240.411 144.716 247.705 143.562C260.937 141.469 269.197 128.717 271.772 116.509C273.489 108.366 273.337 100.019 273.143 91.7456C273.155 91.4265 273.074 91.1108 272.911 90.8364C272.748 90.5619 272.509 90.3405 272.223 90.1986C271.937 90.0568 271.616 90.0006 271.299 90.0368C270.982 90.0731 270.682 90.2001 270.435 90.4028C265.145 94.0123 261.342 99.4158 259.73 105.613L262.898 106.269L264.564 91.8174C264.587 91.4594 264.493 91.1037 264.296 90.8039C264.099 90.5041 263.809 90.2766 263.472 90.1557C258.508 88.427 254.371 92.3282 251.67 96.0189C250.272 97.9303 248.93 100.013 246.852 101.257C244.687 102.437 242.21 102.917 239.761 102.63C234.705 102.265 229.911 100.354 224.958 99.4086C220.409 98.5618 215.77 98.3039 211.156 98.6412C202.024 99.2822 193.173 102.075 185.326 106.791C177.489 111.513 170.313 118.262 166.153 126.503C163.778 131.208 162.489 136.623 163.794 141.838C164.316 144.207 165.386 146.421 166.918 148.302C168.45 150.183 170.401 151.678 172.616 152.669C174.558 153.482 175.614 150.394 173.685 149.586C170.012 148.048 167.68 144.442 166.864 140.645C165.932 136.305 167.074 131.815 169.062 127.928C172.934 120.359 179.562 114.064 186.787 109.708C194.141 105.278 202.419 102.606 210.976 101.902C215.162 101.568 219.373 101.752 223.514 102.447C228.159 103.222 232.603 104.884 237.259 105.618C242.369 106.424 247.671 105.715 251.327 101.739C254.017 98.815 257.34 91.4748 262.402 93.238L261.31 91.5762L259.644 106.027C259.435 107.836 262.345 108.489 262.812 106.683C264.265 101.026 267.748 96.1021 272.596 92.8471L269.889 91.5044C270.21 105.223 270.498 120.386 261.354 131.628C257.431 136.451 251.91 139.979 245.636 140.541C238.569 141.174 231.63 138.616 224.553 139.207C218.434 139.718 211.85 142.676 209.777 148.888C209.112 150.883 212.195 151.951 212.86 149.958V149.958Z" fill="#301446"/>
<path d="M240.733 198.712C240.724 198.868 240.713 199.025 240.697 199.182C240.568 200.51 240.178 201.799 239.548 202.975C238.918 204.151 238.061 205.19 237.026 206.032L225.52 215.455C223.435 217.158 220.76 217.965 218.081 217.698C215.403 217.432 212.939 216.113 211.231 214.033L182.341 178.757C180.639 176.672 179.833 173.997 180.1 171.318C180.366 168.639 181.684 166.176 183.765 164.468L195.271 155.045C196.302 154.2 197.49 153.567 198.766 153.181C200.042 152.795 201.382 152.665 202.709 152.797C204.035 152.929 205.323 153.321 206.498 153.951C207.673 154.581 208.713 155.436 209.557 156.468L238.447 191.744C240.056 193.697 240.872 196.185 240.733 198.712Z" fill="#301446"/>
<path d="M204.066 180.994C206.057 180.994 207.671 179.38 207.671 177.389C207.671 175.398 206.057 173.783 204.066 173.783C202.075 173.783 200.461 175.398 200.461 177.389C200.461 179.38 202.075 180.994 204.066 180.994Z" fill="white"/>
<path d="M228.965 181.791L228.962 181.814C230.493 182.14 231.847 183.027 232.757 184.3C233.667 185.574 234.067 187.142 233.879 188.696L221.561 289.615C221.166 292.852 219.544 295.815 217.031 297.893C214.518 299.971 211.303 301.007 208.05 300.787C204.796 300.568 201.75 299.11 199.538 296.713C197.327 294.316 196.118 291.163 196.161 287.902C196.168 287.442 196.199 286.983 196.255 286.527L208.573 185.607C208.774 183.959 209.622 182.459 210.929 181.436C212.236 180.413 213.896 179.952 215.544 180.153L228.965 181.791Z" fill="#EA7052"/>
<path d="M639.381 119.197C664.895 119.197 685.578 98.5136 685.578 72.9998C685.578 47.486 664.895 26.803 639.381 26.803C613.867 26.803 593.184 47.486 593.184 72.9998C593.184 98.5136 613.867 119.197 639.381 119.197Z" fill="#E4E4E4"/>
<path d="M644.782 92.3924C641.787 92.3092 638.061 92.2053 635.189 90.1079C634.334 89.4578 633.632 88.6286 633.131 87.6783C632.631 86.7281 632.344 85.6799 632.291 84.6071C632.239 83.8447 632.364 83.0806 632.656 82.3746C632.949 81.6686 633.4 81.0397 633.976 80.5371C634.831 79.8986 635.833 79.4844 636.89 79.3323C637.946 79.1802 639.024 79.295 640.025 79.6662L637.58 61.7984L639.375 61.5525L642.249 82.5584L640.751 81.8706C639.013 81.0736 636.628 80.668 635.145 81.9206C634.781 82.2481 634.498 82.6551 634.317 83.11C634.136 83.5649 634.062 84.0554 634.101 84.5435C634.145 85.3419 634.361 86.1215 634.733 86.8292C635.105 87.5369 635.625 88.1562 636.258 88.6448C638.493 90.2769 641.463 90.4875 644.833 90.5817L644.782 92.3924Z" fill="#301446"/>
<path d="M628.704 63.3394H618.947V65.151H628.704V63.3394Z" fill="#301446"/>
<path d="M659.502 63.3394H649.745V65.151H659.502V63.3394Z" fill="#301446"/>
<path d="M639.381 146C624.943 146 610.829 141.719 598.825 133.697C586.82 125.676 577.463 114.275 571.938 100.936C566.413 87.5969 564.967 72.9191 567.784 58.7584C570.601 44.5978 577.553 31.5905 587.762 21.3812C597.972 11.172 610.979 4.21943 625.14 1.40271C639.3 -1.41401 653.978 0.0316257 667.317 5.55682C680.656 11.082 692.057 20.4386 700.078 32.4434C708.1 44.4482 712.381 58.562 712.381 73C712.359 92.3541 704.661 110.909 690.976 124.595C677.29 138.28 658.735 145.978 639.381 146ZM639.381 2.00003C625.339 2.00003 611.612 6.1641 599.936 13.9657C588.26 21.7673 579.16 32.856 573.786 45.8295C568.412 58.8031 567.006 73.0788 569.745 86.8515C572.485 100.624 579.247 113.275 589.177 123.205C599.106 133.134 611.757 139.896 625.53 142.636C639.302 145.375 653.578 143.969 666.552 138.595C679.525 133.222 690.614 124.121 698.415 112.446C706.217 100.77 710.381 87.0425 710.381 73C710.36 54.1762 702.873 36.1294 689.562 22.819C676.252 9.50848 658.205 2.02131 639.381 2.00003Z" fill="#3F3D56"/>
<path d="M575.396 288.552C595.73 288.552 612.214 272.068 612.214 251.733C612.214 231.399 595.73 214.915 575.396 214.915C555.062 214.915 538.578 231.399 538.578 251.733C538.578 272.068 555.062 288.552 575.396 288.552Z" fill="#E4E4E4"/>
<path d="M701.76 288.552C722.094 288.552 738.578 272.068 738.578 251.733C738.578 231.399 722.094 214.915 701.76 214.915C681.425 214.915 664.941 231.399 664.941 251.733C664.941 272.068 681.425 288.552 701.76 288.552Z" fill="#CACACA"/>
<path d="M593.281 259.086C592.052 259.136 590.853 258.699 589.944 257.87C589.036 257.042 588.491 255.888 588.427 254.66C588.42 254.567 588.414 254.474 588.409 254.381H562.383C562.378 254.474 562.372 254.567 562.365 254.66C562.333 255.287 562.175 255.901 561.901 256.466C561.627 257.03 561.241 257.534 560.768 257.947C560.295 258.359 559.744 258.673 559.147 258.868C558.55 259.063 557.92 259.135 557.295 259.082C556.644 259.077 556 258.943 555.401 258.688C554.802 258.434 554.259 258.063 553.803 257.597C553.348 257.132 552.989 256.581 552.748 255.976C552.506 255.372 552.387 254.725 552.396 254.074V253.881C552.399 251.362 553.401 248.947 555.182 247.167C556.963 245.386 559.377 244.384 561.896 244.381H588.896C591.415 244.384 593.829 245.386 595.61 247.167C597.391 248.947 598.393 251.362 598.396 253.881V254.074C598.405 254.725 598.286 255.372 598.044 255.976C597.803 256.581 597.444 257.132 596.989 257.597C596.533 258.063 595.991 258.434 595.391 258.688C594.792 258.943 594.148 259.077 593.497 259.082C593.426 259.084 593.353 259.086 593.281 259.086Z" fill="white"/>
<path d="M458.485 506.294H1.19066C0.875467 506.293 0.573504 506.167 0.350952 505.944C0.1284 505.721 0.00341797 505.419 0.00341797 505.104C0.00341797 504.788 0.1284 504.486 0.350952 504.263C0.573504 504.04 0.875467 503.914 1.19066 503.913H458.485C458.8 503.914 459.102 504.04 459.324 504.263C459.547 504.486 459.672 504.788 459.672 505.104C459.672 505.419 459.547 505.721 459.324 505.944C459.102 506.167 458.8 506.293 458.485 506.294Z" fill="#3F3D56"/>
</g>
<defs>
<clipPath id="clip0_11_123">
<rect width="738.578" height="506.294" fill="white"/>
</clipPath>
</defs>
</svg>
