<svg width="275" height="69" viewBox="0 0 275 69" fill="none" xmlns="http://www.w3.org/2000/svg">
<path d="M36.4267 27.7808C37.1725 28.501 37.5452 29.4856 37.5448 30.7344C37.5448 32.0461 37.1721 33.0619 36.4267 33.7816C35.6814 34.5014 34.5629 34.8606 33.0713 34.8593H28.0262V26.7031H33.0713C34.5629 26.7031 35.6814 27.0624 36.4267 27.7808Z" fill="white"/>
<path d="M33 4C14.7746 4 0 18.5508 0 36.5C0 54.4492 14.7746 69 33 69C51.2254 69 66 54.4492 66 36.5C66 18.5508 51.2254 4 33 4ZM36.927 52.9528L29.9772 40.5313H28.0262V52.9528H19.8871V20.0472H33.5478C36.1812 20.0472 38.4261 20.5 40.2824 21.4057C42.1384 22.3131 43.5266 23.5555 44.447 25.1328C45.3746 26.7384 45.8512 28.5584 45.8278 30.4056C45.8556 32.5072 45.1961 34.5619 43.9468 36.266C42.6928 37.9846 40.8448 39.2031 38.4028 39.9216L46.1129 52.9528H36.927Z" fill="white"/>
<path d="M99.3348 53.674C99.2287 54.558 98.8575 55.2829 98.221 55.8486C97.5845 56.4144 96.895 56.768 96.1525 56.9094C95.4099 57.0862 94.7204 57.0155 94.084 56.6972C93.4829 56.379 93.1646 55.7425 93.1293 54.7878C92.9525 50.7215 92.8641 46.5138 92.8641 42.1646C92.8641 37.7801 92.8641 33.4309 92.8641 29.1171C92.2983 28.905 91.874 28.5867 91.5912 28.1624C91.3083 27.7381 91.1315 27.2785 91.0608 26.7834C91.0254 26.253 91.0961 25.7227 91.2729 25.1923C91.4497 24.6619 91.7149 24.2022 92.0685 23.8133C92.4575 23.389 92.9878 23 93.6597 22.6464C94.3315 22.2928 95.0564 21.9746 95.8343 21.6917C96.6475 21.3735 97.4431 21.1083 98.221 20.8961C98.9989 20.684 99.653 20.5249 100.183 20.4188C102.411 19.9591 104.656 19.9768 106.919 20.4718C109.182 20.9315 111.162 21.7801 112.86 23.0177C114.592 24.2552 115.883 25.8641 116.731 27.8442C117.58 29.8243 117.669 32.0873 116.997 34.6332C116.785 35.3403 116.519 36.0475 116.201 36.7547C115.883 37.4619 115.512 38.116 115.087 38.7171C114.486 39.6365 113.779 40.4497 112.966 41.1569C112.152 41.8641 111.269 42.5182 110.314 43.1193C110.986 43.8265 111.622 44.5691 112.223 45.347C112.824 46.1249 113.496 46.832 114.239 47.4685C114.522 47.716 114.928 48.105 115.459 48.6354C116.024 49.1657 116.555 49.7315 117.05 50.3326C117.58 50.9337 118.04 51.5348 118.429 52.1359C118.818 52.7017 118.994 53.179 118.959 53.568C118.924 54.2398 118.729 54.8409 118.376 55.3713C118.057 55.937 117.651 56.3613 117.156 56.6442C116.696 56.9624 116.183 57.1215 115.618 57.1215C115.052 57.1215 114.486 56.9271 113.92 56.5381C113.284 56.0431 112.683 55.4597 112.117 54.7878C111.551 54.116 111.003 53.4972 110.473 52.9315C109.306 51.6586 108.157 50.3856 107.025 49.1127C105.929 47.8044 104.798 46.5315 103.631 45.2939C102.924 45.4354 102.199 45.5414 101.456 45.6122C100.749 45.6475 100.042 45.7006 99.3348 45.7713V53.3028V53.674ZM108.829 28.0033C107.414 27.1547 105.859 26.6773 104.161 26.5713C102.499 26.4652 100.891 26.695 99.3348 27.2608V39.2475C100.926 39.1414 102.482 38.947 104.002 38.6641C105.558 38.3459 106.99 37.674 108.298 36.6486C109.006 36.0829 109.571 35.4287 109.996 34.6862C110.455 33.9083 110.72 33.1304 110.791 32.3525C110.897 31.5392 110.791 30.7613 110.473 30.0188C110.19 29.2409 109.642 28.5691 108.829 28.0033ZM122.516 42.3238C122.764 41.2983 123.1 40.2906 123.524 39.3006C123.984 38.3105 124.532 37.3735 125.168 36.4895C125.805 35.5702 126.512 34.7392 127.29 33.9967C128.103 33.2541 128.969 32.653 129.889 32.1934C131.515 31.3448 133.142 30.9204 134.768 30.9204C136.43 30.8851 137.968 31.2033 139.383 31.8751C140.797 32.547 141.999 33.5547 142.989 34.8983C143.979 36.2066 144.633 37.7801 144.952 39.6188C145.128 40.821 145.217 41.9702 145.217 43.0663C145.252 44.1271 145.146 45.2409 144.899 46.4077C144.545 48.0696 143.82 49.7315 142.724 51.3934C141.663 53.0199 140.373 54.3812 138.852 55.4773C137.367 56.6088 135.723 57.3514 133.92 57.705C132.152 58.0586 130.366 57.7757 128.563 56.8564C127.749 56.4674 127.007 56.0077 126.335 55.4773C125.699 54.9823 125.115 54.3812 124.585 53.674C123.984 52.8961 123.506 52.0829 123.153 51.2343C122.835 50.3856 122.569 49.5017 122.357 48.5823C122.11 47.5923 122.021 46.6022 122.092 45.6122C122.163 44.5867 122.286 43.5967 122.463 42.642L122.516 42.3238ZM128.881 43.4376C128.775 44.0033 128.686 44.5691 128.616 45.1348C128.545 45.6652 128.545 46.2133 128.616 46.779C128.722 47.5923 128.934 48.3348 129.252 49.0066C129.606 49.6785 130.048 50.2088 130.578 50.5978C131.144 50.9867 131.78 51.1989 132.488 51.2343C133.195 51.2343 133.955 51.0044 134.768 50.5448C135.794 49.9436 136.678 49.0243 137.42 47.7867C138.163 46.5138 138.622 45.2055 138.799 43.8619C138.976 42.4829 138.835 41.1923 138.375 39.9901C137.915 38.7525 137.014 37.8685 135.67 37.3381C134.786 37.3381 133.973 37.5149 133.23 37.8685C132.488 38.1867 131.833 38.6287 131.268 39.1945C130.737 39.7249 130.26 40.3613 129.836 41.1039C129.447 41.8464 129.128 42.6243 128.881 43.4376ZM173.349 50.7569C173.95 51.7823 174.145 52.7017 173.933 53.5149C173.756 54.3282 173.367 54.9293 172.766 55.3182C172.165 55.7425 171.422 55.9017 170.538 55.7956C169.69 55.7249 168.859 55.2829 168.045 54.4696C167.197 55.0707 166.313 55.5304 165.393 55.8486C164.474 56.2022 163.502 56.5028 162.476 56.7503C160.885 57.1039 159.347 57.0685 157.862 56.6442C156.412 56.2552 155.122 55.6011 153.99 54.6818C152.859 53.7624 151.939 52.6309 151.232 51.2873C150.525 49.9083 150.136 48.4232 150.065 46.832C149.959 45.0641 150.083 43.3669 150.436 41.7403C150.825 40.1138 151.427 38.6287 152.24 37.2851C153.053 35.9414 154.114 34.7923 155.422 33.8376C156.766 32.8829 158.339 32.2111 160.143 31.8221C161.203 31.6099 162.264 31.5039 163.325 31.5039C164.421 31.5039 165.499 31.5923 166.56 31.7691C166.525 30.9912 166.49 30.1072 166.454 29.1171C166.454 28.0917 166.454 27.1017 166.454 26.147C166.454 25.1923 166.49 24.3436 166.56 23.6011C166.631 22.8232 166.719 22.2751 166.825 21.9569C167.073 21.3204 167.444 20.8431 167.939 20.5249C168.47 20.1713 169.018 19.9945 169.583 19.9945C170.149 19.9591 170.697 20.1006 171.228 20.4188C171.793 20.7017 172.235 21.1436 172.554 21.7448C172.624 21.9215 172.713 22.0983 172.819 22.2751C172.925 22.4166 172.978 22.5757 172.978 22.7525C173.013 27.3845 173.013 31.9635 172.978 36.4895C172.978 41.0155 172.978 45.5945 172.978 50.2265C173.119 50.4387 173.243 50.6155 173.349 50.7569ZM165.977 47.8398C166.048 47.7337 166.171 47.6276 166.348 47.5215C166.56 47.4155 166.666 47.274 166.666 47.0972C166.666 45.6122 166.666 44.1624 166.666 42.7481C166.666 41.2983 166.649 39.8309 166.613 38.3459C165.765 38.1691 164.881 38.063 163.961 38.0276C163.042 37.9923 162.14 38.0807 161.256 38.2928C160.408 38.505 159.612 38.8586 158.87 39.3536C158.162 39.8486 157.597 40.5558 157.172 41.4751C156.96 42.147 156.766 42.8188 156.589 43.4906C156.412 44.1624 156.306 44.8166 156.271 45.453C156.271 46.0895 156.359 46.726 156.536 47.3624C156.713 47.9635 157.013 48.547 157.438 49.1127C157.579 49.2541 157.738 49.3956 157.915 49.537C158.127 49.6785 158.516 49.926 159.082 50.2796C160.39 50.3856 161.628 50.2619 162.794 49.9083C163.997 49.5547 165.057 48.8652 165.977 47.8398ZM201.918 50.863C202.237 51.3227 202.413 51.8707 202.449 52.5072C202.519 53.1083 202.449 53.6917 202.237 54.2575C202.06 54.7878 201.741 55.2298 201.282 55.5834C200.858 55.937 200.292 56.0961 199.585 56.0608C198.665 55.9901 197.923 55.6718 197.357 55.1061C196.791 54.5403 196.261 53.9039 195.766 53.1967C194.387 54.3282 192.955 55.1061 191.47 55.5304C190.02 55.9901 188.588 56.0961 187.174 55.8486C185.759 55.6011 184.433 55.0177 183.196 54.0983C181.958 53.1436 180.915 51.8707 180.066 50.2796C179.288 48.7945 178.846 47.1503 178.74 45.347C178.67 43.5436 178.652 41.8287 178.687 40.2022C178.687 39.6365 178.705 39.0884 178.74 38.558C178.776 37.9923 178.811 37.4088 178.846 36.8077C178.882 36.3481 178.899 35.9061 178.899 35.4818C178.899 35.0221 178.917 34.5978 178.953 34.2088C179.023 33.8199 179.129 33.4309 179.271 33.042C179.448 32.653 179.695 32.2818 180.013 31.9282C180.438 31.4685 180.95 31.2033 181.551 31.1326C182.153 31.0265 182.718 31.0796 183.249 31.2917C183.814 31.5039 184.292 31.8398 184.681 32.2994C185.105 32.7238 185.335 33.2541 185.37 33.8906C185.441 35.6939 185.388 37.5149 185.211 39.3536C185.07 41.1923 185.087 42.9956 185.264 44.7635C185.335 45.6122 185.547 46.4785 185.901 47.3624C186.29 48.2464 186.891 48.8829 187.704 49.2718C188.517 49.6254 189.33 49.6077 190.144 49.2188C190.992 48.7945 191.682 48.2994 192.212 47.7337C192.46 47.4508 192.69 47.1503 192.902 46.832C193.149 46.4785 193.414 46.1779 193.697 45.9304C193.556 44.6928 193.467 43.4552 193.432 42.2177C193.397 40.9801 193.397 39.7425 193.432 38.505C193.432 37.8331 193.45 37.1083 193.485 36.3304C193.556 35.5171 193.697 34.7569 193.909 34.0497C194.157 33.3072 194.511 32.6707 194.97 32.1403C195.43 31.5746 196.084 31.221 196.933 31.0796C197.322 31.0088 197.693 31.0442 198.046 31.1856C198.435 31.3271 198.771 31.5215 199.054 31.7691C199.549 32.1934 199.885 32.6707 200.062 33.2011C200.239 33.7315 200.327 34.2972 200.327 34.8983C200.327 35.4994 200.274 36.1182 200.168 36.7547C200.097 37.3558 200.044 37.9215 200.009 38.4519C199.938 39.442 199.885 40.4851 199.85 41.5812C199.814 42.6773 199.85 43.7735 199.956 44.8696C200.062 45.9657 200.256 47.0265 200.539 48.0519C200.858 49.0773 201.317 50.0144 201.918 50.863ZM214.251 53.621C214.145 54.3989 213.862 55.0707 213.402 55.6365C212.943 56.2022 212.412 56.5912 211.811 56.8033C211.21 57.0155 210.591 57.0155 209.955 56.8033C209.318 56.5912 208.788 56.1138 208.364 55.3713C208.187 55.0884 208.046 54.7878 207.939 54.4696C207.833 54.1514 207.78 53.8331 207.78 53.5149V39.5657C207.109 39.5657 206.49 39.389 205.924 39.0354C205.394 38.6464 204.987 38.1867 204.704 37.6564C204.457 37.0906 204.368 36.5072 204.439 35.9061C204.51 35.2696 204.793 34.6862 205.288 34.1558C205.641 33.7669 206.012 33.5193 206.401 33.4133C206.826 33.2718 207.268 33.1834 207.727 33.1481C207.692 32.0519 207.657 30.9735 207.621 29.9127C207.621 28.8519 207.71 27.7912 207.886 26.7304C208.099 25.0685 208.594 23.6541 209.372 22.4873C210.149 21.3204 211.104 20.4188 212.236 19.7823C213.402 19.1459 214.693 18.7746 216.107 18.6685C217.522 18.5624 218.989 18.7746 220.51 19.305C221.146 19.5171 221.747 19.7823 222.313 20.1006C222.914 20.4188 223.444 20.8254 223.904 21.3204C224.222 21.674 224.452 22.0983 224.594 22.5934C224.735 23.053 224.753 23.5304 224.647 24.0254C224.576 24.4851 224.399 24.9271 224.116 25.3514C223.869 25.7403 223.497 26.0409 223.002 26.253C222.331 26.5359 221.659 26.6066 220.987 26.4652C220.351 26.3238 219.714 26.0939 219.078 25.7757C218.689 25.6343 218.317 25.4928 217.964 25.3514C217.61 25.2099 217.239 25.1039 216.85 25.0332C216.461 24.9624 216.107 25.0155 215.789 25.1923C215.471 25.3691 215.188 25.6166 214.941 25.9348C214.728 26.2177 214.552 26.5536 214.41 26.9425C214.304 27.2961 214.251 27.6497 214.251 28.0033C214.216 28.8166 214.198 29.6475 214.198 30.4961C214.233 31.3094 214.251 32.1227 214.251 32.9359C214.781 32.9006 215.347 32.8652 215.948 32.8298C216.549 32.7945 217.133 32.7768 217.699 32.7768C218.3 32.7768 218.848 32.7945 219.343 32.8298C219.838 32.8652 220.227 32.9359 220.51 33.042C221.075 33.2541 221.535 33.5901 221.889 34.0497C222.242 34.474 222.472 34.9514 222.578 35.4818C222.684 35.9768 222.631 36.4895 222.419 37.0199C222.242 37.5503 221.906 38.0099 221.411 38.3989C220.952 38.7525 220.421 39 219.82 39.1414C219.219 39.2829 218.583 39.389 217.911 39.4597C217.239 39.495 216.585 39.5127 215.948 39.5127C215.312 39.4773 214.746 39.4597 214.251 39.4597V53.621ZM243.208 31.6099C243.632 30.9028 244.163 30.4254 244.799 30.1779C245.436 29.895 246.055 29.8243 246.656 29.9657C247.292 30.1072 247.84 30.4254 248.3 30.9204C248.795 31.4155 249.095 32.0696 249.202 32.8829C249.272 33.484 249.148 34.3326 248.83 35.4287C248.547 36.5249 248.176 37.6564 247.716 38.8232C247.292 39.9901 246.85 41.1039 246.39 42.1646C245.931 43.2254 245.56 44.0564 245.277 44.6575C244.074 47.3094 242.766 49.9083 241.352 52.4541C239.937 55 238.488 57.5282 237.003 60.0387C236.79 60.4276 236.543 60.905 236.26 61.4707C235.977 62.0365 235.677 62.6199 235.358 63.221C235.076 63.8221 234.775 64.3878 234.457 64.9182C234.139 65.4486 233.838 65.8376 233.555 66.0851C232.919 66.6862 232.265 67.0398 231.593 67.1459C230.921 67.2519 230.302 67.1635 229.736 66.8807C229.206 66.5978 228.764 66.1558 228.41 65.5547C228.092 64.9536 227.968 64.2287 228.039 63.3801C228.074 63.0619 228.216 62.6376 228.463 62.1072C228.711 61.6122 228.994 61.0818 229.312 60.516C229.63 59.9856 229.948 59.4729 230.267 58.9779C230.585 58.4829 230.832 58.0762 231.009 57.758C231.716 56.5912 232.388 55.4243 233.025 54.2575C233.697 53.0906 234.368 51.9238 235.04 50.7569C232.707 48.8122 230.673 46.6552 228.941 44.2862C227.244 41.8818 225.935 39.2475 225.016 36.3834C224.839 35.8884 224.662 35.3934 224.486 34.8983C224.309 34.4033 224.256 33.8906 224.326 33.3602C224.397 32.7591 224.556 32.2287 224.804 31.7691C225.087 31.274 225.44 30.8851 225.865 30.6022C226.289 30.284 226.766 30.1072 227.297 30.0718C227.862 30.0365 228.428 30.1602 228.994 30.4431C229.453 30.6906 229.807 31.0442 230.055 31.5039C230.337 31.9282 230.567 32.4055 230.744 32.9359C230.921 33.4309 231.062 33.9436 231.168 34.474C231.31 35.0044 231.469 35.4818 231.646 35.9061C233.06 39.4066 235.199 42.3945 238.063 44.8696C239.089 42.7481 240.008 40.6265 240.821 38.505C241.635 36.3481 242.36 34.1558 242.996 31.9282L243.208 31.6099Z" fill="white"/>
</svg>
