<svg width="162" height="88" viewBox="0 0 162 88" fill="none" xmlns="http://www.w3.org/2000/svg">
<rect width="162" height="88" rx="16" fill="white"/>
<path d="M108.011 31.726C99.2984 26.8529 85.3145 19.0278 63.6242 6.88295C62.1619 5.91718 60.4793 5.79062 59.0256 6.28266L96.24 43.497L108.011 31.726Z" fill="#32BBFF"/>
<path d="M59.0256 6.28271C58.7531 6.375 58.488 6.48633 58.2344 6.6208C56.6291 7.48916 55.4495 9.16011 55.4495 11.2734V75.7207C55.4495 77.834 56.629 79.505 58.2344 80.3732C58.4875 80.5075 58.7525 80.6193 59.0247 80.7122L96.2399 43.4971L59.0256 6.28271Z" fill="#32BBFF"/>
<path d="M96.2399 43.4971L59.0247 80.7122C60.4788 81.2079 62.1613 81.091 63.6241 80.1111C84.659 68.3323 98.4853 60.6 107.299 55.6854C107.544 55.5476 107.784 55.4128 108.022 55.2794L96.2399 43.4971Z" fill="#32BBFF"/>
<path d="M55.4495 43.4971V75.7207C55.4495 77.834 56.629 79.505 58.2344 80.3732C58.4876 80.5075 58.7525 80.6193 59.0247 80.7122L96.24 43.4971H55.4495Z" fill="#2C9FD9"/>
<path d="M63.6241 6.88299C61.8875 5.73631 59.8397 5.76898 58.2344 6.62093L95.675 44.0618L108.011 31.726C99.2983 26.8529 85.3144 19.0279 63.6241 6.88299Z" fill="#29CC5E"/>
<path d="M95.6753 42.9326L58.2344 80.3733C59.8398 81.2251 61.8875 81.2743 63.6241 80.1112C84.659 68.3324 98.4853 60.6001 107.299 55.6855C107.544 55.5477 107.784 55.4129 108.022 55.2795L95.6753 42.9326Z" fill="#D93F21"/>
<path d="M123.55 43.497C123.55 41.7114 122.649 39.9093 120.864 38.91C120.864 38.91 117.524 37.0466 107.287 31.3208L95.1108 43.497L107.299 55.6853C117.423 50.0006 120.863 48.0839 120.863 48.0839C122.649 47.0847 123.55 45.2827 123.55 43.497Z" fill="#FFD500"/>
<path d="M120.864 48.0841C122.649 47.0848 123.55 45.2827 123.55 43.4971H95.1108L107.299 55.6853C117.423 50.0008 120.864 48.0841 120.864 48.0841Z" fill="#FFAA00"/>
</svg>
